<svg width="14" height="14" viewBox="0 0 14 14" fill="none" xmlns="http://www.w3.org/2000/svg">
<path d="M7.00002 6.89195H4.66669M7.00002 6.89195C7.00002 6.89195 8.94427 6.89195 8.94427 4.90399C8.94427 2.91603 7.00002 2.91663 7.00002 2.91663H5.01669C4.92386 2.91663 4.83484 2.95432 4.7692 3.02141C4.70356 3.08851 4.66669 3.1795 4.66669 3.27439V6.89195M7.00002 6.89195C7.00002 6.89195 9.33335 6.89195 9.33335 9.07787C9.33335 11.2638 7.00002 11.2644 7.00002 11.2644H5.01669C4.92386 11.2644 4.83484 11.2267 4.7692 11.1596C4.70356 11.0925 4.66669 11.0015 4.66669 10.9066V6.89195" stroke="#5E5E5E"/>
</svg>
