<svg width="14" height="14" viewBox="0 0 14 14" fill="none" xmlns="http://www.w3.org/2000/svg">
<path d="M5.25 7H7M7 7H8.75M7 7V5.25M7 7V8.75M12.25 2.1V11.9C12.25 11.9928 12.2131 12.0818 12.1475 12.1475C12.0818 12.2131 11.9928 12.25 11.9 12.25H2.1C2.00717 12.25 1.91815 12.2131 1.85251 12.1475C1.78687 12.0818 1.75 11.9928 1.75 11.9V2.1C1.75 2.00717 1.78687 1.91815 1.85251 1.85251C1.91815 1.78687 2.00717 1.75 2.1 1.75H11.9C11.9928 1.75 12.0818 1.78687 12.1475 1.85251C12.2131 1.91815 12.25 2.00717 12.25 2.1Z" stroke="#5E5E5E" stroke-linecap="round" stroke-linejoin="round"/>
</svg>
