<svg width="12" height="8" viewBox="0 0 12 8" fill="none" xmlns="http://www.w3.org/2000/svg">
<path d="M6 2.4C6.43399 2.4 6.85021 2.56857 7.15708 2.86863C7.46396 3.16869 7.63636 3.57565 7.63636 4C7.63636 4.42435 7.46396 4.83131 7.15708 5.13137C6.85021 5.43143 6.43399 5.6 6 5.6C5.56601 5.6 5.14979 5.43143 4.84292 5.13137C4.53604 4.83131 4.36364 4.42435 4.36364 4C4.36364 3.57565 4.53604 3.16869 4.84292 2.86863C5.14979 2.56857 5.56601 2.4 6 2.4ZM6 0C8.72727 0 11.0564 1.65867 12 4C11.0564 6.34133 8.72727 8 6 8C3.27273 8 0.943636 6.34133 0 4C0.943636 1.65867 3.27273 0 6 0ZM1.18909 4C1.62996 4.88016 2.31453 5.62173 3.16499 6.1404C4.01545 6.65907 4.99767 6.93404 6 6.93404C7.00233 6.93404 7.98455 6.65907 8.83501 6.1404C9.68547 5.62173 10.37 4.88016 10.8109 4C10.37 3.11984 9.68547 2.37827 8.83501 1.8596C7.98455 1.34093 7.00233 1.06596 6 1.06596C4.99767 1.06596 4.01545 1.34093 3.16499 1.8596C2.31453 2.37827 1.62996 3.11984 1.18909 4Z" fill="#929292" fill-opacity="0.52"/>
</svg>
