<svg width="14" height="14" viewBox="0 0 14 14" fill="none" xmlns="http://www.w3.org/2000/svg">
<path d="M1.75 11.0833V2.91667C1.75 2.60725 1.87292 2.3105 2.09171 2.09171C2.3105 1.87292 2.60725 1.75 2.91667 1.75H9.43367C9.74306 1.75007 10.0398 1.87303 10.2585 2.09183L11.9082 3.7415C12.127 3.96024 12.2499 4.25694 12.25 4.56633V11.0833C12.25 11.3928 12.1271 11.6895 11.9083 11.9083C11.6895 12.1271 11.3928 12.25 11.0833 12.25H2.91667C2.60725 12.25 2.3105 12.1271 2.09171 11.9083C1.87292 11.6895 1.75 11.3928 1.75 11.0833Z" stroke="#5E5E5E"/>
<path d="M5.01667 5.25H8.98333C9.07616 5.25 9.16518 5.21313 9.23082 5.14749C9.29646 5.08185 9.33333 4.99283 9.33333 4.9V2.1C9.33333 2.00717 9.29646 1.91815 9.23082 1.85251C9.16518 1.78687 9.07616 1.75 8.98333 1.75H5.01667C4.92384 1.75 4.83482 1.78687 4.76918 1.85251C4.70354 1.91815 4.66667 2.00717 4.66667 2.1V4.9C4.66667 4.99283 4.70354 5.08185 4.76918 5.14749C4.83482 5.21313 4.92384 5.25 5.01667 5.25ZM3.5 7.93333V12.25H10.5V7.93333C10.5 7.84051 10.4631 7.75148 10.3975 7.68585C10.3318 7.62021 10.2428 7.58333 10.15 7.58333H3.85C3.75717 7.58333 3.66815 7.62021 3.60251 7.68585C3.53687 7.75148 3.5 7.84051 3.5 7.93333Z" stroke="#5E5E5E"/>
</svg>
