<svg width="13" height="13" viewBox="0 0 13 13" fill="none" xmlns="http://www.w3.org/2000/svg">
<path d="M12.4383 13L7.46994 8.03168C7.07324 8.36967 6.61703 8.63123 6.10131 8.81636C5.5856 9.00149 5.06724 9.09405 4.54623 9.09405C3.27784 9.09405 2.20303 8.65344 1.32182 7.77223C0.440606 6.89049 0 5.81542 0 4.54703C0 3.27863 0.440606 2.20382 1.32182 1.32261C2.20303 0.4414 3.27784 0.000529414 4.54623 4.7538e-07C5.81463 -0.000528464 6.88969 0.440342 7.77144 1.32261C8.65318 2.20488 9.09378 3.27969 9.09326 4.54703C9.09326 5.09818 8.99567 5.63161 8.80049 6.14733C8.60531 6.66305 8.34877 7.10418 8.03088 7.47074L12.9992 12.4383L12.4383 13ZM4.54702 8.29985C5.59961 8.29985 6.48823 7.93752 7.21288 7.21288C7.93752 6.48823 8.29985 5.59935 8.29985 4.54623C8.29985 3.49311 7.93752 2.6045 7.21288 1.88038C6.48823 1.15626 5.59961 0.793938 4.54702 0.793409C3.49444 0.79288 2.60555 1.1552 1.88038 1.88038C1.1552 2.60555 0.79288 3.49417 0.793409 4.54623C0.793937 5.59829 1.15626 6.48691 1.88038 7.21208C2.6045 7.93726 3.49391 8.30038 4.54702 8.29985Z" fill="#929292"/>
</svg>
